<?xml version="1.0" encoding="utf-8"?>
<!-- Generator: Adobe Illustrator 22.0.0, SVG Export Plug-In . SVG Version: 6.00 Build 0)  -->
<svg version="1.1" id="Layer_1" xmlns="http://www.w3.org/2000/svg" xmlns:xlink="http://www.w3.org/1999/xlink" x="0px" y="0px"
	 viewBox="0 0 1096 170.2" style="enable-background:new 0 0 1096 170.2;" xml:space="preserve">
<style type="text/css">
	.st0{fill:#FFFFFF;}
	.st1{fill:#FFFFFF;stroke:#FFFFFF;stroke-width:35.3;}
	.st2{fill:#FFFFFF;stroke:#FFFFFF;stroke-width:0.4;}
</style>
<title>OpenRouter</title>
<path class="st0" d="M338.5,78.2c0,11.7-2.2,21.8-6.5,30.2c-8.1,16.3-24.8,26.5-42.9,26.2c-18.2,0.3-34.9-9.9-42.9-26.2
	c-4.4-8.4-6.5-18.5-6.5-30.2s2.1-21.8,6.4-30.2c8.1-16.3,24.8-26.5,43.1-26.2c18.2-0.3,34.9,9.9,42.9,26.2
	C336.3,56.4,338.5,66.5,338.5,78.2 M322,78.2c0-8.9-1.5-16.4-4.3-22.6c-2.5-5.7-6.6-10.5-11.8-13.9C301,38.6,295.3,37,289,37
	c-6-0.1-11.9,1.6-17,4.7c-4.9,3.1-8.8,7.9-11.7,13.9c-2.8,6.2-4.3,13.6-4.3,22.6c0,8.9,1.5,16.4,4.3,22.5
	c2.5,5.7,6.6,10.5,11.7,13.9c5,3.1,10.7,4.8,17,4.8s11.9-1.6,16.9-4.8c5-3.1,8.9-7.8,11.8-13.9S322,87.1,322,78.2L322,78.2z
	 M357.6,163.9V50.7h15.7V64h1.4c0.9-1.7,2.2-3.7,4-5.9c4.7-5.9,12.1-9,19.6-8.5c13.1-0.2,24.9,7.5,30.1,19.5
	c3,6.3,4.5,13.9,4.5,22.8s-1.5,16.5-4.4,22.8c-2.6,5.9-6.9,11-12.3,14.7c-5.3,3.5-11.5,5.3-17.8,5.1c-4.9,0-9-0.8-12.2-2.5
	c-2.9-1.4-5.4-3.4-7.4-5.9c-1.8-2.3-3.1-4.3-4.2-6.1h-0.8v43.7h-16 M373.5,91.9c0,5.8,0.7,10.8,2.4,15.2c1.7,4.4,4.2,7.8,7.3,10.2
	c3.1,2.5,7,3.7,11.6,3.7c4.8,0,8.8-1.3,12-3.8c3.1-2.6,5.7-6.1,7.3-10.5c1.7-4.4,2.5-9.3,2.5-14.8c0-5.4-0.8-10.4-2.5-14.7
	c-1.4-4-4-7.5-7.3-10.2c-3.5-2.6-7.7-3.9-12-3.8c-4.6,0-8.5,1.2-11.7,3.6c-3.1,2.4-5.6,5.8-7.3,10.1c-1.7,4.8-2.5,9.9-2.4,15
	L373.5,91.9z M486.2,134.5c-8.2,0-15.1-1.7-20.9-5.2c-5.9-3.5-10.4-8.4-13.5-14.7c-3.1-6.3-4.7-13.8-4.7-22.3
	c0-8.4,1.6-15.8,4.7-22.3c2.9-6.2,7.5-11.4,13.3-15.1c10.2-5.9,22.4-7,33.5-3.1c9.3,3.3,16.7,10.7,19.9,20.1c2.1,5.2,3,11.5,3,19.1
	v5.7H456v-12h49.8c0-4.2-0.8-8-2.6-11.2c-3.5-6.7-10.5-10.8-18-10.5c-4.5,0-8.4,1-11.7,3.1c-6.7,4.4-10.7,12-10.5,20.1v9.4
	c0,5.4,1,10.1,2.9,13.9c2,3.9,4.7,6.8,8.2,8.8c3.7,2.1,8,3.1,12.3,3c3.1,0,5.9-0.4,8.4-1.4c5-1.7,8.9-5.5,10.7-10.5l15.1,2.8
	c-1.2,4.5-3.4,8.4-6.5,11.7c-3.1,3.4-7,5.9-11.7,7.8C497.1,133.7,491.6,134.6,486.2,134.5L486.2,134.5z M555.3,84v49h-16V50.7h15.6
	v13.4h1c1.9-4.4,4.8-7.9,8.9-10.5c4-2.7,9.1-4,15.3-4c5.7,0,10.5,1.2,14.7,3.5c4.3,2.4,7.5,5.9,9.8,10.5c2.5,5.3,3.7,11.2,3.6,17.1
	v52.4h-16V82.6c0.3-5.1-1.4-10.1-4.7-13.9c-3.1-3.5-7.3-5.1-12.8-5.1c-3.4-0.1-6.8,0.8-9.8,2.4c-2.9,1.7-5.3,4.1-6.8,7.1
	c-1.8,3.4-2.6,7.2-2.5,11.1L555.3,84z M630.7,133V23.3h39.1c8.4,0,15.5,1.5,21.2,4.4s9.8,7,12.6,12.2c2.9,5.5,4.3,11.6,4.2,17.8
	c0,6.8-1.4,12.7-4.2,17.8c-2.9,5.1-7.3,9.3-12.6,11.8c-5.7,2.8-12.8,4.2-21.3,4.2h-29.5V77.2h28.1c5.3,0,9.7-0.7,13.1-2.3
	c3.4-1.5,5.9-3.8,7.3-6.7c1.7-3.2,2.5-6.8,2.4-10.5c0-4.2-0.7-7.8-2.3-10.8c-1.6-3.1-4.3-5.6-7.4-7c-4.2-1.8-8.7-2.6-13.3-2.4h-20.8
	V133h-16.4 M684.9,83.5l27,49.5H693l-26.5-49.5H684.9z M761.3,134.6c-14.2,0.5-27.3-7.3-33.5-20.1c-3.3-7-5-14.6-4.8-22.3
	c0-8.5,1.6-15.9,4.7-22.3c6.2-12.8,19.3-20.7,33.5-20.2c14.2-0.5,27.4,7.4,33.5,20.2c3.4,6.9,5.1,14.6,4.9,22.3
	c0.2,7.7-1.5,15.4-4.8,22.3C788.7,127.3,775.5,135.2,761.3,134.6 M761.3,121.2c5,0,9.2-1.4,12.5-4c3.2-2.6,5.7-6.2,7.3-10.5
	c1.6-4.7,2.4-9.7,2.3-14.7c0-5.2-0.7-10-2.3-14.5c-1.4-4.1-4-7.8-7.3-10.6c-3.6-2.8-8-4.2-12.5-4c-5,0-9.2,1.3-12.6,4
	c-3.1,2.7-5.7,6.3-7.3,10.7c-1.6,4.6-2.4,9.5-2.3,14.5c0,5.2,0.8,10.1,2.4,14.5c1.6,4.4,4,8,7.3,10.6c3.2,2.6,7.4,4,12.6,4H761.3z
	 M869.7,98.9V50.7h16V133H870v-14.4h-0.8c-4.2,9.7-14,15.9-24.6,15.4c-4.9,0.1-9.8-1.1-14-3.6c-4.1-2.5-7.4-6.1-9.4-10.5
	c-2.5-5.3-3.7-11.1-3.6-17V50.7h16v50.4c-0.3,4.9,1.4,9.7,4.6,13.4c3.1,3.4,7.2,5,12.2,5c6.7-0.1,12.8-3.5,16.4-9.1
	C868.8,107.4,869.7,103.5,869.7,98.9L869.7,98.9z M945.7,50.7v12.9h-45V50.7H945.7 M912.8,31h16v77.8c0,3.1,0.4,5.4,1.4,7
	c0.9,1.5,2.1,2.6,3.7,3.1c1.5,0.5,3.1,0.8,4.8,0.8c1.9-0.2,3.8-0.5,5.7-0.7l2.8,13.2c-3.3,1.2-6.9,1.8-10.5,1.8
	c-4.2,0-8.1-0.7-11.7-2.3c-3.6-1.5-6.6-4.1-8.8-7.3c-2.2-3.1-3.4-7.3-3.4-12.3V31L912.8,31z M998.8,134.7c-8.1,0-15.1-1.8-20.9-5.2
	c-5.8-3.6-10.3-8.4-13.4-14.8c-3.1-6.3-4.8-13.8-4.8-22.3c-0.2-7.7,1.5-15.4,4.8-22.3c3.1-6.4,7.5-11.5,13.2-15.1
	c10.2-5.9,22.4-7,33.5-3.1c9.3,3.3,16.7,10.7,19.9,20.1c2.1,5.2,3.1,11.5,3.1,19.1v5.7h-65.6v-12h49.6c0-4.2-0.8-8-2.5-11.2
	c-3.5-6.7-10.6-10.8-18.1-10.5c-4.5,0-8.4,1-11.7,3.1c-6.6,4.5-10.5,12.1-10.4,20.1v9.4c0,5.4,0.9,10.1,2.9,13.9
	c1.9,3.9,4.6,6.8,8.2,8.8c3.7,2.1,8,3.1,12.3,3c2.8,0,5.6-0.4,8.3-1.4c4.9-1.7,8.8-5.5,10.7-10.4l15.1,2.7
	c-1.2,4.4-3.4,8.4-6.5,11.7c-3.3,3.4-7.3,6.1-11.7,7.8c-5.1,1.9-10.6,2.8-16,2.7V134.7z M1051.9,133.1V50.7h15.5v13.1h0.8
	c1.6-4.4,4.2-8,8-10.5c3.9-2.6,8.2-3.9,13-3.9c2.3,0,4.5,0.2,6.8,0.4v15.3c-2.7-0.7-5.6-1.1-8.4-1c-3.5,0-7,0.8-10.1,2.5
	c-6,3.1-9.7,9.4-9.6,16.1V133h-16V133.1z"/>
<g>
	<path class="st1" d="M1.2,85.1c5.9,0,28.6-5.1,40.3-11.8c11.8-6.6,11.8-6.6,36.1-23.9c30.8-21.8,52.5-14.5,88.2-14.5"/>
	<path class="st2" d="M200.3,35.1L140,69.9V0.3L200.3,35.1z"/>
	<path class="st1" d="M0,85.1c5.9,0,28.6,5,40.4,11.7c11.7,6.7,11.7,6.7,36,24c30.8,21.8,52.5,14.5,88.2,14.5"/>
	<path class="st2" d="M199.1,135l-60.3-34.7v69.5L199.1,135L199.1,135z"/>
</g>
</svg>
