<?xml version="1.0" encoding="utf-8"?>
<!-- Generator: Adobe Illustrator 22.0.0, SVG Export Plug-In . SVG Version: 6.00 Build 0)  -->
<svg version="1.1" id="Layer_1" xmlns="http://www.w3.org/2000/svg" xmlns:xlink="http://www.w3.org/1999/xlink" x="0px" y="0px"
	 viewBox="0 0 694 90" style="enable-background:new 0 0 694 90;" xml:space="preserve">
<path d="M248.3,22.2h-17.8L252,88.5h19.2l21.5-66.3h-17.8l-13.5,50L248.3,22.2z"/>
<path fill="currentColor" d="M0,0h18.4v88.5H0V0z"/>
<path d="M36.6,0H55v88.5H36.6V0z"/>
<path d="M73.2,0h54.5v14.8H91.6v21.1h33.6v14.8H91.6v23.2h36.1v14.8H73.2V0z"/>
<path d="M138.9,0h17.4v88.5h-17.4V0z"/>
<path d="M166.8,55.3c0-24.2,12-34.6,30.6-34.6s29.3,10.3,29.3,34.8v4H184c0.6,14.4,4.9,19.2,13.2,19.2c6.5,0,10.6-3.8,11.4-10.5H226
	C224.9,82.8,212.8,90,197.2,90C177.5,90,166.8,79.5,166.8,55.3z M209.6,48c-0.9-12.1-5.1-16.1-12.4-16.1c-7.3,0-11.9,4.1-13.1,16.1
	H209.6z"/>
<path d="M296,55.3c0-24.2,12-34.6,30.6-34.6s29.3,10.3,29.3,34.8v4h-42.8c0.6,14.4,4.9,19.2,13.2,19.2c6.5,0,10.6-3.8,11.4-10.5
	h17.4C354,82.8,341.9,90,326.4,90C306.6,90,296,79.5,296,55.3z M338.7,48c-0.9-12.1-5.1-16.1-12.4-16.1c-7.3,0-11.9,4.1-13.1,16.1
	H338.7z"/>
<path d="M438.4,0h18.4v73.8h34.6v14.8h-53V0z"/>
<path d="M539.3,22.2v7.2c-2.7-4.5-9.5-8.7-16.9-8.7c-15,0-26.6,9.3-26.6,34.6c0,24.5,10.3,34.7,26.1,34.7c8,0,15.3-4.1,17.9-9.3v7.8
	h17.3V22.2H539.3z M526.9,77c-8.7,0-13.6-6.7-13.6-21.7s4.9-21.6,13.6-21.6c8.6,0,13.3,6.6,13.3,21.6S535.6,77,526.9,77z"/>
<path d="M605.3,20.7c-7.4,0-14.3,4.1-17.3,8.7V0h-17.4v88.5h17.3v-7.8c2.5,5.2,9,9.3,17.1,9.3c15.2,0,26.6-9.4,26.6-34.7
	C631.5,30,619.9,20.7,605.3,20.7z M600.3,77c-8.7,0-13.3-6.7-13.3-21.7s4.7-21.4,13.3-21.4c8.7,0,13.6,6.4,13.6,21.4
	S609,77,600.3,77z"/>
<path d="M638.6,68.8h17.4c0.2,6.9,4,10.3,10.5,10.3c6.5,0,10.3-3,10.3-8.2c0-4.7-2.8-6.4-9-7.9l-5.3-1.4
	c-15.1-3.8-22.6-7.9-22.6-20.5c0-12.5,11.6-20.5,26.4-20.5c14.8,0,26.1,5.8,26.6,19.6h-17.4c-0.4-6.1-4.1-8.7-9.4-8.7
	c-5.3,0-9,2.6-9,7.6c0,4.6,3,6.3,8.2,7.6l5.4,1.4C685,51.7,694,55.3,694,68.7c0,13.4-11.9,21.3-27.9,21.3
	C648.6,90,639,83.4,638.6,68.8z"/>
<path d="M384.1,49.5c0-10.4,4.9-16.1,12.6-16.1c6.3,0,9.9,4,9.9,12.5v42.6H424V43.1c0-15.4-8.7-22.4-21.3-22.4
	c-8.5,0-15.6,4.3-18.7,10v-8.6h-17.7v66.3h17.7V49.5z"/>
</svg>
